<svg width="137" height="28" viewBox="0 0 137 28" fill="none" xmlns="http://www.w3.org/2000/svg">
<path d="M13.0489 2.92705C13.3483 2.00574 14.6517 2.00574 14.9511 2.92705L16.9187 8.98278C17.0526 9.3948 17.4365 9.67376 17.8697 9.67376H24.2371C25.2058 9.67376 25.6086 10.9134 24.8249 11.4828L19.6736 15.2254C19.3231 15.4801 19.1764 15.9314 19.3103 16.3435L21.2779 22.3992C21.5773 23.3205 20.5228 24.0866 19.7391 23.5172L14.5878 19.7746C14.2373 19.5199 13.7627 19.5199 13.4122 19.7746L8.2609 23.5172C7.47719 24.0866 6.42271 23.3205 6.72206 22.3992L8.68969 16.3435C8.82356 15.9314 8.6769 15.4801 8.32642 15.2254L3.17511 11.4828C2.39139 10.9134 2.79417 9.67376 3.76289 9.67376H10.1303C10.5635 9.67376 10.9474 9.3948 11.0813 8.98278L13.0489 2.92705Z" fill="#FFA722"/>
<path d="M68.5457 3.04568C68.8386 2.11099 70.1614 2.11099 70.4543 3.04568L72.3113 8.97275C72.442 9.38986 72.8284 9.67376 73.2656 9.67376H79.3503C80.3101 9.67376 80.7187 10.8948 79.952 11.4724L74.9676 15.228C74.6298 15.4825 74.4886 15.922 74.6151 16.3256L76.5041 22.3547C76.7948 23.2825 75.7245 24.0374 74.9481 23.4524L70.1018 19.8009C69.7455 19.5325 69.2545 19.5325 68.8982 19.8009L64.0519 23.4524C63.2755 24.0374 62.2052 23.2825 62.4959 22.3547L64.3849 16.3256C64.5114 15.922 64.3702 15.4825 64.0324 15.228L59.048 11.4724C58.2813 10.8948 58.6899 9.67376 59.6497 9.67376H65.7344C66.1716 9.67376 66.558 9.38986 66.6887 8.97275L68.5457 3.04568Z" fill="#FFA722"/>
<path d="M41.0489 2.92705C41.3483 2.00574 42.6517 2.00574 42.9511 2.92705L44.9187 8.98278C45.0526 9.3948 45.4365 9.67376 45.8697 9.67376H52.2371C53.2058 9.67376 53.6086 10.9134 52.8249 11.4828L47.6736 15.2254C47.3231 15.4801 47.1764 15.9314 47.3103 16.3435L49.2779 22.3992C49.5773 23.3205 48.5228 24.0866 47.7391 23.5172L42.5878 19.7746C42.2373 19.5199 41.7627 19.5199 41.4122 19.7746L36.2609 23.5172C35.4772 24.0866 34.4227 23.3205 34.7221 22.3992L36.6897 16.3435C36.8236 15.9314 36.6769 15.4801 36.3264 15.2254L31.1751 11.4828C30.3914 10.9134 30.7942 9.67376 31.7629 9.67376H38.1303C38.5635 9.67376 38.9474 9.3948 39.0813 8.98278L41.0489 2.92705Z" fill="#FFA722"/>
<path d="M96.0489 2.92705C96.3483 2.00574 97.6517 2.00574 97.9511 2.92705L99.9187 8.98278C100.053 9.3948 100.437 9.67376 100.87 9.67376H107.237C108.206 9.67376 108.609 10.9134 107.825 11.4828L102.674 15.2254C102.323 15.4801 102.176 15.9314 102.31 16.3435L104.278 22.3992C104.577 23.3205 103.523 24.0866 102.739 23.5172L97.5878 19.7746C97.2373 19.5199 96.7627 19.5199 96.4122 19.7746L91.2609 23.5172C90.4772 24.0866 89.4227 23.3205 89.7221 22.3992L91.6897 16.3435C91.8236 15.9314 91.6769 15.4801 91.3264 15.2254L86.1751 11.4828C85.3914 10.9134 85.7942 9.67376 86.7629 9.67376H93.1303C93.5635 9.67376 93.9474 9.3948 94.0813 8.98278L96.0489 2.92705Z" fill="#FFA722"/>
<path fill-rule="evenodd" clip-rule="evenodd" d="M125 6.47215L123.983 9.60083C123.582 10.8369 122.43 11.6738 121.13 11.6738H117.84L120.502 13.6074C121.553 14.3713 121.993 15.7254 121.592 16.9615L120.575 20.0902L123.236 18.1566C124.288 17.3926 125.712 17.3926 126.763 18.1566L129.425 20.0902L128.408 16.9615C128.006 15.7254 128.446 14.3713 129.498 13.6074L132.159 11.6738H128.87C127.57 11.6738 126.418 10.8369 126.016 9.60083L125 6.47215ZM125.951 2.92707C125.651 2.00576 124.348 2.00576 124.049 2.92707L122.081 8.9828C121.947 9.39482 121.563 9.67378 121.13 9.67378H114.763C113.794 9.67378 113.391 10.9134 114.175 11.4828L119.326 15.2254C119.677 15.4801 119.823 15.9315 119.689 16.3435L117.722 22.3992C117.422 23.3205 118.477 24.0866 119.261 23.5172L124.412 19.7746C124.762 19.5199 125.237 19.5199 125.588 19.7746L130.739 23.5172C131.523 24.0866 132.577 23.3205 132.278 22.3992L130.31 16.3435C130.176 15.9315 130.323 15.4801 130.673 15.2254L135.825 11.4828C136.608 10.9134 136.206 9.67378 135.237 9.67378H128.87C128.436 9.67378 128.052 9.39482 127.918 8.9828L125.951 2.92707Z" fill="#FFA722"/>
</svg>
