<svg width="23" height="22" viewBox="0 0 23 22" fill="none" xmlns="http://www.w3.org/2000/svg">
<path d="M16.1499 2.21859C17.3696 2.22209 18.5384 2.68991 19.4009 3.51987C20.2634 4.34982 20.7495 5.47448 20.7532 6.64821V15.5065C20.7495 16.6802 20.2634 17.8049 19.4009 18.6349C18.5384 19.4648 17.3696 19.9326 16.1499 19.9361H6.9443C5.72456 19.9326 4.55581 19.4648 3.69331 18.6349C2.83082 17.8049 2.34466 16.6802 2.34102 15.5065V6.64821C2.34466 5.47448 2.83082 4.34982 3.69331 3.51987C4.55581 2.68991 5.72456 2.22209 6.9443 2.21859H16.1499ZM16.1499 0.447021H6.9443C3.39986 0.447021 0.5 3.23749 0.5 6.64821V15.5065C0.5 18.9172 3.39986 21.7077 6.9443 21.7077H16.1499C19.6943 21.7077 22.5942 18.9172 22.5942 15.5065V6.64821C22.5942 3.23749 19.6943 0.447021 16.1499 0.447021Z" fill="white"/>
<path d="M17.5307 6.64831C17.2575 6.64831 16.9906 6.57038 16.7635 6.42437C16.5364 6.27836 16.3594 6.07083 16.2549 5.82802C16.1504 5.58522 16.123 5.31804 16.1763 5.06028C16.2296 4.80252 16.3611 4.56575 16.5542 4.37992C16.7473 4.19408 16.9934 4.06753 17.2613 4.01626C17.5291 3.96498 17.8068 3.9913 18.0591 4.09187C18.3114 4.19244 18.5271 4.36276 18.6788 4.58128C18.8306 4.7998 18.9115 5.05671 18.9115 5.31952C18.9119 5.49412 18.8765 5.66708 18.8072 5.82847C18.738 5.98985 18.6363 6.13649 18.508 6.25995C18.3797 6.38342 18.2273 6.48128 18.0596 6.54793C17.8919 6.61457 17.7121 6.64868 17.5307 6.64831ZM11.547 7.53385C12.2753 7.53385 12.9873 7.74168 13.5929 8.13106C14.1985 8.52044 14.6705 9.07387 14.9492 9.72138C15.2279 10.3689 15.3008 11.0814 15.1588 11.7688C15.0167 12.4562 14.6659 13.0876 14.1509 13.5832C13.6359 14.0788 12.9798 14.4162 12.2654 14.553C11.5511 14.6897 10.8106 14.6195 10.1377 14.3513C9.46485 14.0831 8.88972 13.6289 8.48508 13.0462C8.08043 12.4634 7.86446 11.7783 7.86446 11.0775C7.8655 10.1379 8.25382 9.2372 8.9442 8.57286C9.63458 7.90853 10.5706 7.53486 11.547 7.53385ZM11.547 5.76229C10.4545 5.76229 9.38661 6.07402 8.47827 6.65806C7.56993 7.2421 6.86196 8.07221 6.44389 9.04343C6.02583 10.0147 5.91645 11.0834 6.12957 12.1144C6.3427 13.1454 6.86877 14.0925 7.64125 14.8359C8.41373 15.5792 9.39793 16.0854 10.4694 16.2905C11.5409 16.4956 12.6515 16.3903 13.6608 15.988C14.6701 15.5857 15.5327 14.9045 16.1396 14.0304C16.7466 13.1563 17.0705 12.1287 17.0705 11.0775C17.0705 9.66779 16.4886 8.31586 15.4527 7.31907C14.4169 6.32228 13.0119 5.76229 11.547 5.76229Z" fill="white"/>
</svg>
