<svg width="46" height="46" viewBox="0 0 46 46" fill="none" xmlns="http://www.w3.org/2000/svg">
<circle cx="23" cy="23" r="23" fill="#1C2128"/>
<path d="M16.0391 22.6429C16.0391 22.7768 16.106 22.9275 16.2065 23.0279L24.0078 30.8292C24.1083 30.9297 24.2589 30.9967 24.3929 30.9967C24.5268 30.9967 24.6775 30.9297 24.7779 30.8292L25.615 29.9922C25.7154 29.8917 25.7824 29.7411 25.7824 29.6071C25.7824 29.4732 25.7154 29.3225 25.615 29.2221L19.0357 22.6429L25.615 16.0636C25.7154 15.9632 25.7824 15.8125 25.7824 15.6786C25.7824 15.5279 25.7154 15.394 25.615 15.2935L24.7779 14.4565C24.6775 14.356 24.5268 14.2891 24.3929 14.2891C24.2589 14.2891 24.1083 14.356 24.0078 14.4565L16.2065 22.2578C16.106 22.3583 16.0391 22.5089 16.0391 22.6429Z" fill="white"/>
</svg>
