<svg width="53" height="54" viewBox="0 0 53 54" fill="none" xmlns="http://www.w3.org/2000/svg">
<circle cx="26.5" cy="26.5312" r="26.5" fill="#1B2129"/>
<path fill-rule="evenodd" clip-rule="evenodd" d="M18.9701 14.9749C20.9962 13.0125 23.4368 12.0312 26.2917 12.0312C29.1466 12.0312 31.5756 13.0013 33.5786 14.9415C35.5819 16.8816 36.5833 19.2343 36.5833 21.9996C36.5833 23.3822 36.2264 24.9655 35.5127 26.7496C34.7989 28.5335 33.9355 30.2062 32.9225 31.7672C31.9095 33.3282 30.908 34.7888 29.918 36.1492C28.9279 37.5096 28.0875 38.591 27.3968 39.3939L26.2917 40.5313C26.0154 40.219 25.6469 39.8066 25.1865 39.2936C24.7261 38.7807 23.8972 37.7549 22.6999 36.216C21.5027 34.6773 20.4551 33.1833 19.5572 31.7338C18.6593 30.2842 17.8419 28.6452 17.1052 26.8164C16.3684 24.9878 16 23.3822 16 21.9996C16 19.2343 16.99 16.8928 18.9701 14.9749Z" stroke="white" stroke-width="2.4" stroke-linecap="round" stroke-linejoin="round"/>
<path d="M27.8747 22.3231C27.8747 23.1976 27.1658 23.9064 26.2913 23.9064C25.4169 23.9064 24.708 23.1976 24.708 22.3231C24.708 21.4486 25.4169 20.7397 26.2913 20.7397C27.1658 20.7397 27.8747 21.4486 27.8747 22.3231Z" fill="white" stroke="white" stroke-width="2.4" stroke-linecap="round" stroke-linejoin="round"/>
</svg>
