<svg width="53" height="53" viewBox="0 0 53 53" fill="none" xmlns="http://www.w3.org/2000/svg">
<circle cx="26.5" cy="26.5" r="26.5" fill="#1B2129"/>
<path d="M30.7799 31.0327L31.3171 30.4942L30.0696 29.2292L29.5325 29.7678L30.7799 31.0327ZM33.1211 30.2686L35.3744 31.5036L36.2193 29.9366L33.966 28.7015L33.1211 30.2686ZM35.8081 33.9583L34.1327 35.638L35.38 36.9029L37.0555 35.2232L35.8081 33.9583ZM33.1118 36.1789C31.4018 36.3395 26.9776 36.1963 22.1875 31.394L20.9402 32.6589C26.1673 37.8995 31.1424 38.1554 33.276 37.9549L33.1118 36.1789ZM22.1875 31.394C17.6216 26.8164 16.8653 22.9663 16.7711 21.296L15.0049 21.3972C15.1234 23.4995 16.0599 27.7662 20.9402 32.6589L22.1875 31.394ZM23.8096 24.0446L24.1479 23.7055L22.9005 22.4406L22.5623 22.7797L23.8096 24.0446ZM24.4171 19.3826L22.9299 17.3796L21.5137 18.4486L23.0009 20.4516L24.4171 19.3826ZM17.9281 16.9436L16.0769 18.7995L17.3243 20.0644L19.1755 18.2085L17.9281 16.9436ZM23.1859 23.4122C22.5623 22.7797 22.5614 22.7806 22.5606 22.7814C22.5603 22.7817 22.5594 22.7826 22.5588 22.7832C22.5577 22.7843 22.5565 22.7855 22.5553 22.7867C22.5529 22.7892 22.5504 22.7918 22.5479 22.7944C22.5428 22.7998 22.5374 22.8055 22.5317 22.8118C22.5203 22.8242 22.5078 22.8385 22.4945 22.8546C22.4677 22.8867 22.4374 22.9263 22.4056 22.9737C22.3417 23.0687 22.2722 23.1943 22.2132 23.3523C22.0927 23.6746 22.0281 24.0995 22.1091 24.6257C22.2674 25.6546 22.9702 27.0138 24.7706 28.8187L26.0179 27.5538C24.3331 25.8647 23.9318 24.8368 23.8573 24.3522C23.8218 24.1216 23.8585 24.0081 23.8687 23.9812C23.8748 23.9646 23.8778 23.9629 23.8702 23.9743C23.8665 23.9798 23.8602 23.9885 23.8504 24.0002C23.8456 24.0061 23.8398 24.0127 23.8331 24.0201C23.8297 24.0238 23.8261 24.0277 23.8221 24.0318C23.8202 24.0338 23.8182 24.0359 23.8161 24.038C23.815 24.0391 23.814 24.0402 23.8129 24.0413C23.8124 24.0418 23.8116 24.0427 23.8113 24.0429C23.8104 24.0438 23.8096 24.0446 23.1859 23.4122ZM24.7706 28.8187C26.5715 30.6243 27.9258 31.3269 28.948 31.4851C29.4704 31.5658 29.8915 31.5014 30.211 31.3814C30.3677 31.3225 30.4924 31.2532 30.5868 31.1895C30.634 31.1576 30.6734 31.1273 30.7053 31.1005C30.7214 31.0872 30.7355 31.0747 30.7479 31.0633C30.7542 31.0576 30.7599 31.0522 30.7652 31.0471C30.768 31.0445 30.7704 31.042 30.7729 31.0396C30.7741 31.0384 30.7753 31.0373 30.7765 31.0361C30.777 31.0355 30.778 31.0346 30.7782 31.0344C30.779 31.0336 30.7799 31.0327 30.1562 30.4002C29.5325 29.7678 29.5334 29.767 29.5342 29.7662C29.5344 29.7659 29.5352 29.7651 29.5358 29.7645C29.5369 29.7634 29.538 29.7623 29.539 29.7613C29.5413 29.7593 29.5433 29.7572 29.5453 29.7552C29.5494 29.7513 29.5533 29.7477 29.5569 29.7443C29.5643 29.7376 29.5709 29.7318 29.5768 29.727C29.5883 29.7173 29.5969 29.7111 29.6022 29.7074C29.6132 29.7 29.611 29.7034 29.5935 29.7099C29.5646 29.7207 29.4489 29.7579 29.2163 29.7219C28.7289 29.6466 27.7022 29.2423 26.0179 27.5538L24.7706 28.8187ZM22.9299 17.3796C21.7278 15.7604 19.3638 15.5042 17.9281 16.9436L19.1755 18.2085C19.8025 17.5798 20.9162 17.6438 21.5137 18.4486L22.9299 17.3796ZM16.7711 21.296C16.7479 20.8844 16.9352 20.4545 17.3243 20.0644L16.0769 18.7995C15.4432 19.4349 14.945 20.3342 15.0049 21.3972L16.7711 21.296ZM34.1327 35.638C33.8086 35.963 33.4611 36.146 33.1118 36.1789L33.276 37.9549C34.1423 37.8734 34.8522 37.4321 35.38 36.9029L34.1327 35.638ZM24.1479 23.7055C25.309 22.5414 25.3953 20.7001 24.4171 19.3826L23.0009 20.4516C23.4768 21.0925 23.406 21.9338 22.9005 22.4406L24.1479 23.7055ZM35.3744 31.5036C36.3389 32.0323 36.4891 33.2755 35.8081 33.9583L37.0555 35.2232C38.6362 33.6384 38.1488 30.9941 36.2193 29.9366L35.3744 31.5036ZM31.3171 30.4942C31.77 30.0401 32.499 29.9276 33.1211 30.2686L33.966 28.7015C32.688 28.001 31.102 28.1944 30.0696 29.2292L31.3171 30.4942Z" fill="white"/>
</svg>
