<svg width="46" height="46" viewBox="0 0 46 46" fill="none" xmlns="http://www.w3.org/2000/svg">
<ellipse cx="23" cy="23" rx="23" ry="23" transform="rotate(-180 23 23)" fill="#1C2128"/>
<path d="M27.9609 24.3571C27.9609 24.2232 27.894 24.0725 27.7935 23.9721L19.9922 16.1708C19.8917 16.0703 19.7411 16.0033 19.6071 16.0033C19.4732 16.0033 19.3225 16.0703 19.2221 16.1708L18.385 17.0078C18.2846 17.1083 18.2176 17.2589 18.2176 17.3929C18.2176 17.5268 18.2846 17.6775 18.385 17.7779L24.9643 24.3571L18.385 30.9364C18.2846 31.0368 18.2176 31.1875 18.2176 31.3214C18.2176 31.4721 18.2846 31.606 18.385 31.7065L19.2221 32.5435C19.3225 32.644 19.4732 32.7109 19.6071 32.7109C19.7411 32.7109 19.8917 32.644 19.9922 32.5435L27.7935 24.7422C27.894 24.6417 27.9609 24.4911 27.9609 24.3571Z" fill="white"/>
</svg>
