<svg width="40" height="41" viewBox="0 0 40 41" fill="none" xmlns="http://www.w3.org/2000/svg">
<path d="M19.045 3.07562C19.3362 2.13764 20.6638 2.13764 20.955 3.07562L24.1596 13.397C24.2895 13.8154 24.6766 14.1005 25.1146 14.1005H35.5782C36.5359 14.1005 36.9458 15.3169 36.1834 15.8965L27.6412 22.3915C27.3065 22.646 27.1668 23.0826 27.2914 23.4841L30.5356 33.9331C30.8242 34.8625 29.75 35.6146 28.9753 35.0257L20.6053 28.6616C20.2476 28.3896 19.7524 28.3896 19.3947 28.6616L11.0247 35.0257C10.25 35.6146 9.17583 34.8625 9.46438 33.9331L12.7086 23.4841C12.8332 23.0826 12.6935 22.646 12.3588 22.3915L3.81656 15.8965C3.05421 15.3169 3.46413 14.1005 4.42181 14.1005H14.8854C15.3234 14.1005 15.7105 13.8154 15.8404 13.397L19.045 3.07562Z" fill="#524FF5"/>
<mask id="mask0_316_2307" style="mask-type:alpha" maskUnits="userSpaceOnUse" x="3" y="2" width="34" height="34">
<path d="M19.045 3.07488C19.3362 2.1369 20.6638 2.13691 20.955 3.07488L24.1596 13.3963C24.2895 13.8147 24.6766 14.0998 25.1146 14.0998H35.5782C36.5359 14.0998 36.9458 15.3162 36.1834 15.8958L27.6412 22.3908C27.3065 22.6452 27.1668 23.0818 27.2914 23.4833L30.5356 33.9324C30.8242 34.8617 29.75 35.6139 28.9753 35.0249L20.6053 28.6608C20.2476 28.3889 19.7524 28.3889 19.3947 28.6608L11.0247 35.0249C10.25 35.6139 9.17583 34.8617 9.46438 33.9324L12.7086 23.4833C12.8332 23.0818 12.6935 22.6452 12.3588 22.3908L3.81656 15.8958C3.05421 15.3162 3.46413 14.0998 4.42181 14.0998H14.8854C15.3234 14.0998 15.7105 13.8147 15.8404 13.3963L19.045 3.07488Z" fill="#524FF5"/>
</mask>
<g mask="url(#mask0_316_2307)">
<rect x="11.4609" y="-6.34991" width="22.3072" height="41.7209" transform="rotate(34.5456 11.4609 -6.34991)" fill="#2421D9"/>
</g>
</svg>
