<svg width="22" height="22" viewBox="0 0 22 22" fill="none" xmlns="http://www.w3.org/2000/svg">
<path d="M14.5883 6.83834C14.5923 6.83834 14.5976 6.83834 14.6029 6.83834C14.7417 6.83834 14.8705 6.88366 14.9761 6.96174L14.9741 6.96035C15.0511 7.03077 15.1029 7.12977 15.1155 7.24133V7.24342C15.1288 7.32848 15.1361 7.42609 15.1361 7.52579C15.1361 7.57111 15.1348 7.61573 15.1315 7.66035V7.65407C14.9821 9.30577 14.334 13.3112 14.0046 15.1602C13.8652 15.9432 13.591 16.2054 13.3254 16.2305C12.7483 16.2869 12.3101 15.8303 11.751 15.4454C10.8758 14.8423 10.3811 14.4672 9.53187 13.8795C8.5498 13.2011 9.18659 12.8267 9.74568 12.2173C9.89243 12.057 12.4363 9.62718 12.4861 9.40686C12.4887 9.39362 12.49 9.37897 12.49 9.36364C12.49 9.30925 12.4708 9.25975 12.4396 9.2221C12.405 9.1984 12.3619 9.18515 12.3167 9.18515C12.2869 9.18515 12.2583 9.19143 12.2317 9.20188L12.2331 9.20119C12.1454 9.2221 10.7475 10.1922 8.03918 12.1113C7.74369 12.3561 7.37052 12.5108 6.96414 12.529H6.96016C6.38446 12.4558 5.86189 12.3212 5.36587 12.1295L5.41501 12.1462C4.79217 11.9329 4.29748 11.8206 4.33997 11.4595C4.36255 11.2717 4.60912 11.0795 5.07968 10.8829C7.97831 9.55676 9.91124 8.68269 10.8785 8.26065C11.9456 7.66593 13.1826 7.17648 14.4834 6.85925L14.5876 6.83764L14.5883 6.83834ZM10.4768 0.552979C4.96414 0.566923 0.5 5.26264 0.5 11.053C0.5 16.8517 4.97676 21.553 10.5 21.553C16.0232 21.553 20.5 16.8524 20.5 11.053C20.5 5.26264 16.0359 0.566923 10.5246 0.552979H10.5232C10.5077 0.552979 10.4923 0.552979 10.4768 0.552979Z" fill="white"/>
</svg>
