<svg width="21" height="22" viewBox="0 0 21 22" fill="none" xmlns="http://www.w3.org/2000/svg">
<g clip-path="url(#clip0_558_170)">
<mask id="mask0_558_170" style="mask-type:luminance" maskUnits="userSpaceOnUse" x="0" y="0" width="21" height="22">
<path d="M20.8956 0.5H0.103516V21.5H20.8956V0.5Z" fill="white"/>
</mask>
<g mask="url(#mask0_558_170)">
<path fill-rule="evenodd" clip-rule="evenodd" d="M1.56508 1.97618C0.103516 3.45237 0.103516 5.82825 0.103516 10.58V11.42C0.103516 16.1718 0.103516 18.5476 1.56508 20.0238C3.02665 21.5 5.37901 21.5 10.0837 21.5H10.9154C15.6201 21.5 17.9725 21.5 19.434 20.0238C20.8956 18.5476 20.8956 16.1718 20.8956 11.42V10.58C20.8956 5.82825 20.8956 3.45237 19.434 1.97618C17.9725 0.5 15.6201 0.5 10.9154 0.5H10.0837C5.37901 0.5 3.02665 0.5 1.56508 1.97618ZM3.61222 6.88755C3.72483 12.3475 6.42778 15.6288 11.1666 15.6288H11.4353V12.505C13.1766 12.68 14.4933 13.9663 15.0218 15.6288H17.4823C16.8065 13.1438 15.0304 11.77 13.9215 11.245C15.0304 10.5975 16.5899 9.02254 16.9624 6.88755H14.7272C14.242 8.62005 12.8041 10.195 11.4353 10.3438V6.88755H9.20003V12.9425C7.8139 12.5925 6.06394 10.895 5.98597 6.88755H3.61222Z" fill="white"/>
</g>
</g>
<defs>
<clipPath id="clip0_558_170">
<rect width="21" height="21" fill="white" transform="translate(0 0.5)"/>
</clipPath>
</defs>
</svg>
