<svg width="34" height="30" viewBox="0 0 34 30" fill="none" xmlns="http://www.w3.org/2000/svg">
<path d="M17 29.9989C17.5095 29.9983 18.007 29.8466 18.4278 29.5637C24.6618 25.3958 27.3611 22.538 28.85 20.7512C32.0229 16.9427 33.542 13.0325 33.4991 8.79812C33.4491 3.94578 29.4965 -0.00109863 24.688 -0.00109863C21.1914 -0.00109863 18.7697 1.93875 17.3593 3.55437C17.3147 3.60503 17.2595 3.64566 17.1975 3.6735C17.1355 3.70134 17.0681 3.71575 17 3.71575C16.9319 3.71575 16.8645 3.70134 16.8025 3.6735C16.7405 3.64566 16.6853 3.60503 16.6407 3.55437C15.2303 1.93718 12.8086 -0.00109863 9.31204 -0.00109863C4.5035 -0.00109863 0.55085 3.94578 0.500877 8.7989C0.458042 13.0341 1.97866 16.9442 5.14998 20.752C6.63887 22.5387 9.33822 25.3966 15.5722 29.5645C15.9931 29.8471 16.4906 29.9985 17 29.9989Z" fill="#FF5B5B"/>
<mask id="mask0_316_2284" style="mask-type:alpha" maskUnits="userSpaceOnUse" x="0" y="-1" width="34" height="31">
<path d="M17 29.9989C17.5095 29.9983 18.007 29.8466 18.4278 29.5637C24.6618 25.3958 27.3611 22.538 28.85 20.7512C32.0229 16.9427 33.542 13.0325 33.4991 8.79812C33.4491 3.94578 29.4965 -0.00109863 24.688 -0.00109863C21.1914 -0.00109863 18.7697 1.93875 17.3593 3.55437C17.3147 3.60503 17.2595 3.64566 17.1975 3.6735C17.1355 3.70134 17.0681 3.71575 17 3.71575C16.9319 3.71575 16.8645 3.70134 16.8025 3.6735C16.7405 3.64566 16.6853 3.60503 16.6407 3.55437C15.2303 1.93718 12.8086 -0.00109863 9.31204 -0.00109863C4.5035 -0.00109863 0.55085 3.94578 0.500877 8.7989C0.458042 13.0341 1.97866 16.9442 5.14998 20.752C6.63887 22.5387 9.33822 25.3966 15.5722 29.5645C15.9931 29.8471 16.4906 29.9985 17 29.9989Z" fill="#FF5B5B"/>
</mask>
<g mask="url(#mask0_316_2284)">
<rect x="-9.5" y="-9.0011" width="26.5" height="56" fill="#ED2E2E"/>
</g>
</svg>
