<svg width="53" height="53" viewBox="0 0 53 53" fill="none" xmlns="http://www.w3.org/2000/svg">
<circle cx="26.5" cy="26.5" r="26.5" fill="#1B2129"/>
<path d="M39 19.2143L27.3333 27.775C27.0929 27.9326 26.8005 28.0179 26.5 28.0179C26.1995 28.0179 25.9071 27.9326 25.6667 27.775L14 19.2143M39 19.2143C39 18.8922 38.8537 18.5834 38.5932 18.3557C38.3327 18.1279 37.9795 18 37.6111 18H15.3889C15.0205 18 14.6673 18.1279 14.4068 18.3557C14.1463 18.5834 14 18.8922 14 19.2143M39 19.2143V33.7857C39 34.1078 38.8537 34.4166 38.5932 34.6443C38.3327 34.8721 37.9795 35 37.6111 35H15.3889C15.0205 35 14.6673 34.8721 14.4068 34.6443C14.1463 34.4166 14 34.1078 14 33.7857V19.2143" stroke="white" stroke-width="2" stroke-linecap="round" stroke-linejoin="round"/>
</svg>
