<svg width="141" height="39" viewBox="0 0 141 39" fill="none" xmlns="http://www.w3.org/2000/svg">
<path d="M61.8402 16.2678C61.7356 15.88 61.5817 15.5384 61.3786 15.2429C61.1754 14.9413 60.9261 14.6858 60.6307 14.4766C60.3352 14.2673 59.9967 14.1103 59.6151 14.0057C59.2334 13.8949 58.8149 13.8395 58.3594 13.8395C57.4422 13.8395 56.6482 14.0611 55.9773 14.5043C55.3125 14.9474 54.7985 15.5937 54.4354 16.4432C54.0722 17.2865 53.8906 18.3113 53.8906 19.5178C53.8906 20.7304 54.0661 21.7644 54.4169 22.62C54.7678 23.4756 55.2756 24.1281 55.9403 24.5774C56.6051 25.0268 57.4115 25.2514 58.3594 25.2514C59.1965 25.2514 59.9044 25.116 60.483 24.8452C61.0677 24.5682 61.5109 24.1773 61.8125 23.6726C62.1141 23.1679 62.2649 22.5739 62.2649 21.8906L63.1143 21.9922H58.5163V18.6591H66.669V21.1612C66.669 22.8539 66.3089 24.3035 65.5888 25.5099C64.8748 26.7164 63.8899 27.6428 62.6342 28.2891C61.3847 28.9354 59.9474 29.2585 58.3224 29.2585C56.5189 29.2585 54.9339 28.8677 53.5675 28.0859C52.201 27.3042 51.1361 26.1901 50.3729 24.7436C49.6096 23.291 49.228 21.5675 49.228 19.5732C49.228 18.022 49.4588 16.6463 49.9205 15.446C50.3821 14.2396 51.0253 13.2178 51.8501 12.3807C52.6811 11.5436 53.6413 10.9096 54.7308 10.4787C55.8265 10.0478 57.0052 9.83239 58.267 9.83239C59.3627 9.83239 60.3814 9.98935 61.3232 10.3033C62.2711 10.6172 63.1082 11.0604 63.8345 11.6328C64.567 12.2053 65.161 12.8854 65.6165 13.6733C66.072 14.4612 66.3551 15.326 66.4659 16.2678H61.8402ZM72.1234 34.3182C71.5817 34.3182 71.0708 34.2751 70.5907 34.1889C70.1106 34.1089 69.6982 34.0012 69.3535 33.8658L70.3507 30.5881C70.7939 30.7358 71.194 30.822 71.551 30.8466C71.9141 30.8712 72.225 30.8127 72.4835 30.6712C72.7482 30.5357 72.9513 30.2926 73.0929 29.9418L73.2683 29.517L68.2271 14.8182H72.9544L75.5673 24.9375H75.715L78.3649 14.8182H83.1199L77.774 30.3572C77.5154 31.1328 77.1492 31.8161 76.6752 32.407C76.2074 33.004 75.6011 33.4718 74.8564 33.8104C74.1177 34.1489 73.2067 34.3182 72.1234 34.3182ZM84.851 29V14.8182H89.1444V17.4219H89.3013C89.5968 16.5601 90.0953 15.88 90.7971 15.3814C91.4988 14.8828 92.3359 14.6335 93.3084 14.6335C94.2933 14.6335 95.1365 14.8859 95.8382 15.3906C96.54 15.8954 96.9862 16.5724 97.177 17.4219H97.3248C97.5894 16.5786 98.1065 15.9046 98.8759 15.3999C99.6453 14.889 100.553 14.6335 101.6 14.6335C102.941 14.6335 104.031 15.0644 104.868 15.9261C105.705 16.7817 106.124 17.9574 106.124 19.4531V29H101.609V20.4872C101.609 19.7794 101.427 19.2408 101.064 18.8714C100.701 18.496 100.23 18.3082 99.6515 18.3082C99.0298 18.3082 98.5404 18.5114 98.1834 18.9176C97.8326 19.3177 97.6571 19.8563 97.6571 20.5334V29H93.3176V20.4411C93.3176 19.7824 93.1391 19.2623 92.7821 18.8807C92.4251 18.4991 91.9542 18.3082 91.3695 18.3082C90.9756 18.3082 90.6278 18.4036 90.3262 18.5945C90.0246 18.7791 89.7876 19.0438 89.6152 19.3885C89.449 19.7332 89.3659 20.1394 89.3659 20.6072V29H84.851ZM108.921 29V10.0909H121.829V13.8026H113.492V17.6804H121.007V21.4013H113.492V29H108.921ZM124.13 29V14.8182H128.645V29H124.13ZM126.392 13.1655C125.758 13.1655 125.214 12.9562 124.758 12.5376C124.303 12.1129 124.075 11.602 124.075 11.005C124.075 10.4141 124.303 9.90933 124.758 9.49077C125.214 9.06605 125.758 8.85369 126.392 8.85369C127.033 8.85369 127.577 9.06605 128.027 9.49077C128.482 9.90933 128.71 10.4141 128.71 11.005C128.71 11.602 128.482 12.1129 128.027 12.5376C127.577 12.9562 127.033 13.1655 126.392 13.1655ZM139.524 14.8182V18.142H130.577V14.8182H139.524ZM132.452 11.4205H136.966V24.5405C136.966 24.8175 137.01 25.0421 137.096 25.2145C137.188 25.3807 137.32 25.5007 137.493 25.5746C137.665 25.6423 137.871 25.6761 138.111 25.6761C138.284 25.6761 138.465 25.6607 138.656 25.63C138.853 25.593 139.001 25.5623 139.099 25.5376L139.782 28.7969C139.567 28.8584 139.262 28.9354 138.868 29.0277C138.481 29.12 138.016 29.1785 137.474 29.2031C136.416 29.2524 135.508 29.1293 134.751 28.8338C134 28.5322 133.424 28.0644 133.024 27.4304C132.63 26.7964 132.439 25.9993 132.452 25.0391V11.4205Z" fill="white"/>
<circle cx="19.5" cy="19.5" r="19.5" fill="#A1F75E"/>
<path d="M12.9199 11.7952C11.9667 11.7952 11.1919 12.57 11.1919 13.5232V15.0677C11.1919 14.1145 10.4222 13.3448 9.46894 13.3448C8.51572 13.3448 7.74092 14.1145 7.74092 15.0677V23.9372C7.74092 24.8905 8.51572 25.6602 9.46894 25.6602C10.4222 25.6602 11.1919 24.8854 11.1919 23.9372V25.4818C11.1919 26.435 11.9667 27.2047 12.9199 27.2047C13.8731 27.2047 14.6428 26.435 14.6428 25.4818V13.5232C14.6479 12.57 13.8731 11.7952 12.9199 11.7952ZM8.72472 15.7202C8.77569 19.059 8.68394 19.2629 8.37809 19.2629C8.10793 19.2629 8.10793 18.2434 8.10793 15.7202C8.10793 14.3133 8.62787 14.0737 8.7706 14.1604C8.94391 14.2725 8.70433 14.3133 8.72472 15.7202ZM12.2674 14.14C12.3184 17.4788 12.2318 17.6827 11.9208 17.6827C11.6506 17.6827 11.6506 16.6632 11.6506 14.14C11.6506 12.7331 12.1706 12.4935 12.3133 12.5802C12.4815 12.6872 12.247 12.728 12.2674 14.14Z" fill="#1D2229"/>
<path d="M15.1016 17.9325V21.0623H23.8998V17.9325H15.1016Z" fill="#1D2229"/>
<path d="M7.28724 17.9325H5.49805V21.0623H7.28724V17.9325Z" fill="#1D2229"/>
<path d="M33.5033 17.9325H31.7141V21.0623H33.5033V17.9325Z" fill="#1D2229"/>
<path d="M29.5324 13.3397C28.5792 13.3397 27.8095 14.1094 27.8095 15.0626V13.5232C27.8095 12.57 27.0347 11.7952 26.0815 11.7952C25.1282 11.7952 24.3585 12.57 24.3585 13.5232V25.4818C24.3585 26.435 25.1282 27.2047 26.0815 27.2047C27.0347 27.2047 27.8095 26.435 27.8095 25.4818V23.9372C27.8095 24.8905 28.5843 25.6602 29.5324 25.6602C30.4856 25.6602 31.2554 24.8854 31.2554 23.9372V15.0626C31.2605 14.1094 30.4856 13.3397 29.5324 13.3397ZM25.3933 14.14C25.4443 17.4788 25.3525 17.6827 25.0467 17.6827C24.7765 17.6827 24.7765 16.6632 24.7765 14.14C24.7765 12.7331 25.2965 12.4935 25.4392 12.5802C25.6125 12.6872 25.3729 12.728 25.3933 14.14ZM28.7525 15.7202C28.8035 19.059 28.7117 19.2629 28.4059 19.2629C28.1357 19.2629 28.1357 18.2434 28.1357 15.7202C28.1357 14.3133 28.6557 14.0737 28.7984 14.1604C28.9666 14.2725 28.7321 14.3133 28.7525 15.7202Z" fill="#1D2229"/>
</svg>
